<svg width="600" height="112" viewBox="0 0 600 112" fill="none" xmlns="http://www.w3.org/2000/svg">
<path d="M80.19 75.4494L73.14 74.7868L0 81.6715V82.9976L80.19 75.4494ZM408.42 81.8654H304.98V82.8037H408.42V81.8654ZM295.02 81.8654H191.58V82.8037H295.02V81.8654ZM526.85 89.8823L599.99 82.9986V81.6725L519.8 89.2197L526.85 89.8823Z" fill="white"/>
<path fill-rule="evenodd" clip-rule="evenodd" d="M306.36 112L219.81 103.854L226.85 103.192L320.45 112H306.35H306.36Z" fill="white"/>
<path d="M526.85 18.3181L519.8 18.9807L600 26.528V25.2019L526.85 18.3181ZM304.98 26.3332H295.02V36.0687H304.98V26.3322V26.3332ZM304.98 15.6602H295.02V25.3948H304.98V15.6612V15.6602ZM80.19 32.7492L0 25.2019V26.528L73.14 33.4118L80.19 32.7492ZM380.2 4.51294L332.25 0H318.16L373.16 5.17647L380.2 4.51294ZM295.02 25.3948H191.58V26.3332H295.02V25.3948ZM408.42 25.3948H304.98V26.3332H408.42V25.3948Z" fill="white"/>
<path d="M304.98 25.3948H295.02V26.3332H304.98V25.3948ZM373.16 61.6471L380.2 60.9835L332.25 56.4706H318.16L373.16 61.6471ZM219.8 47.2141L316.35 56.3012H330.44L226.84 46.5506L219.8 47.2141ZM316.35 56.3012L318.15 56.4706H332.24L330.44 56.3012H316.34H316.35ZM304.98 72.2993H295.02V81.8654H304.98V72.2993ZM304.98 82.8028H295.02V92.5393H304.98V82.8047V82.8028Z" fill="white"/>
<path d="M304.98 81.8654H295.02V82.8038H304.98V81.8654Z" fill="white"/>
</svg>
