<svg width="95" height="36" viewBox="0 0 95 36" fill="none" xmlns="http://www.w3.org/2000/svg">
<path d="M10.4986 12.8025C6.55799 11.907 4.52559 10.365 4.52559 8.175C4.52559 5.92275 6.65 4.1955 9.51346 4.1955C12.4383 4.1955 14.6547 6.07725 14.6547 8.5455V8.73H18.6881V8.54475C18.6881 4.01025 14.7781 0.58575 9.5748 0.58575C7.08087 0.58575 4.77244 1.3575 3.10957 2.77575C1.41602 4.227 0.492953 6.23175 0.492953 8.4225C0.492953 10.4895 1.29335 12.2475 2.86346 13.635C4.27949 14.8695 6.2498 15.795 8.77441 16.35C13.0232 17.307 15.1776 18.9105 15.1776 21.132C15.1776 23.538 12.8385 25.3582 9.7289 25.3582C6.52732 25.3582 4.09472 23.322 4.09472 20.6385V20.4532H0V20.6385C0 25.389 4.15606 28.9672 9.63614 28.9672C12.2535 28.9672 14.6854 28.1647 16.4402 26.6842C18.2258 25.173 19.2109 23.1067 19.2109 20.7922C19.2109 16.8127 16.2861 14.1292 10.4986 12.8025V12.8025ZM33.1273 7.28025C29.9871 7.28025 27.185 8.69925 25.3687 11.1982V7.77375H21.5508V35.9692H25.3994V25.2337C27.2164 27.7327 29.9871 29.1517 33.158 29.1517C39.131 29.1517 43.6259 24.4627 43.6259 18.2317C43.5953 12 39.0996 7.2795 33.1273 7.2795V7.28025ZM39.5926 19.0327C39.2844 22.365 36.6371 25.0485 33.3121 25.3883C31.157 25.6043 29.156 24.987 27.6779 23.6295C26.1998 22.272 25.3687 20.3595 25.3687 18.231C25.3687 14.1285 28.417 11.0437 32.481 11.0437C34.574 11.0437 36.4523 11.8462 37.807 13.3267C39.1609 14.8072 39.808 16.8435 39.5926 19.0335V19.0327ZM90.7609 7.77375V11.1982C88.9447 8.69925 86.1433 7.311 82.9716 7.311C77.03 7.311 72.5351 11.9077 72.5351 18.0465C72.5351 24.1545 77.03 28.7812 82.9716 28.7812C86.1433 28.7812 88.9447 27.3937 90.7609 24.9255V25.4505C90.7609 29.7067 88.1136 32.4525 83.9875 32.4525C81.2168 32.4525 78.8769 31.2187 77.7998 29.1825L77.7377 29.0902H73.7664L73.8591 29.3677C74.5668 31.404 75.8601 33.1005 77.5843 34.2727C79.3392 35.445 81.5556 36.0615 83.9875 36.0615C87.1285 36.0615 89.7757 35.0745 91.6847 33.162C93.5937 31.2795 94.6095 28.6275 94.6095 25.512V7.773H90.7609V7.77375ZM88.6058 23.2905C86.9744 24.864 84.6345 25.5112 82.2019 25.08C79.2771 24.5865 76.9994 22.2105 76.5992 19.188C76.2603 16.7505 76.9994 14.4367 78.6001 12.8325C79.9242 11.5372 81.7097 10.8277 83.68 10.8277C84.1416 10.8277 84.5724 10.8585 85.0347 10.9515C87.9595 11.4142 90.2994 13.851 90.6689 16.8742C91.007 19.3725 90.2687 21.717 88.6058 23.2905ZM68.3177 0.0614998C67.8497 -0.0448279 67.3627 -0.0328452 66.9005 0.0963701C66.4382 0.225585 66.0153 0.46798 65.6697 0.80175C64.992 1.4805 64.7152 2.4675 64.9306 3.45525C65.1461 4.473 66.0078 5.337 67.0244 5.553C67.2398 5.6145 67.4552 5.6145 67.6707 5.6145C68.4097 5.6145 69.148 5.337 69.6716 4.782C70.3494 4.1025 70.6261 3.1155 70.4107 2.1285C70.1953 1.1415 69.3635 0.30825 68.317 0.0614998H68.3177ZM65.7617 24.9255H62.4367C60.0654 24.9255 58.6502 23.3212 58.6502 20.6377C58.6502 18.0157 59.9121 14.8687 62.498 11.0752L62.5294 11.013V9.933L51.5072 8.3595C51.5072 7.43475 51.015 6.54 50.2139 6.108C49.2287 5.553 48.1515 5.553 47.2591 6.07725C46.3967 6.57075 45.873 7.527 45.873 8.51475C45.871 9.06948 46.034 9.61223 46.3411 10.0737C46.6482 10.5351 47.0855 10.8942 47.5972 11.1052L44.1795 28.6275H47.9974L51.1691 11.9692L57.1107 12.987C55.5099 15.8557 54.7095 18.54 54.7095 20.946C54.7095 25.3882 57.3875 28.3185 61.7283 28.596V28.6275H69.5796V7.83525H65.731V24.9255H65.7617V24.9255Z" fill="black"/>
</svg>
